<svg xmlns="http://www.w3.org/2000/svg" width="512" height="512" viewBox="0 0 512 512">
  <defs>
    <radialGradient id="g" cx="0.85" cy="0" r="1.3">
      <stop offset="0" stop-color="#4f8bff"/>
      <stop offset="0.42" stop-color="#2563eb"/>
      <stop offset="1" stop-color="#1736b0"/>
    </radialGradient>
  </defs>
  <rect width="512" height="512" fill="url(#g)"/>
  <svg x="128" y="128" width="256" height="256" viewBox="0 0 24 24" fill="none" stroke="#ffffff" stroke-width="2" stroke-linecap="round" stroke-linejoin="round">
    <path d="M19 7V4a1 1 0 0 0-1-1H5a2 2 0 0 0 0 4h15a1 1 0 0 1 1 1v4h-3a2 2 0 0 0 0 4h3a1 1 0 0 0 1-1v-2a1 1 0 0 0-1-1"/>
    <path d="M3 5v14a2 2 0 0 0 2 2h15a1 1 0 0 0 1-1v-4"/>
  </svg>
</svg>
